%
M48
M72
T01C0.0236
T02C0.0394
T03C0.0910
%
T01
X4225Y2979
X5850Y3479
X6975Y3479
X7850Y3604
X5725Y4104
X7850Y4354
X6725Y4854
X9225Y5104
X11475Y4854
X11725Y3479
X11100Y2229
X14850Y1479
X15848Y623
X16478Y3143
X18919Y3694
X20179Y4166
X21360Y3772
X21281Y3221
X23643Y3851
X23643Y4560
X25769Y4087
X20887Y5741
X18919Y5741
X18683Y6292
X18210Y6686
X15848Y5741
X17738Y8733
X25927Y6056
X25139Y623
X4352Y6607
T02
X2369Y4970
X2369Y3238
X25831Y3238
X25831Y4970
T03
X24037Y6751
X24037Y1581
M30
