G75*
G70*
%OFA0B0*%
%FSLAX24Y24*%
%IPPOS*%
%LPD*%
%AMOC8*
5,1,8,0,0,1.08239X$1,22.5*
%
%ADD10R,0.0433X0.0394*%
%ADD11R,0.0315X0.0315*%
%ADD12R,0.0137X0.0550*%
%ADD13R,0.0394X0.0433*%
%ADD14R,0.0118X0.0551*%
%ADD15R,0.0551X0.0118*%
%ADD16R,0.0945X0.0787*%
%ADD17R,0.0909X0.0197*%
%ADD18R,0.2100X0.0760*%
%ADD19R,0.0100X0.0450*%
%ADD20R,0.0450X0.0100*%
D10*
X005443Y000876D03*
X005443Y001545D03*
X009100Y001545D03*
X009100Y000876D03*
X017167Y003221D03*
X017836Y003221D03*
X020002Y003300D03*
X020671Y003300D03*
X011810Y006729D03*
X011140Y006729D03*
D11*
X007725Y001506D03*
X007100Y001506D03*
X006396Y001506D03*
X006396Y000915D03*
X007100Y000915D03*
X007725Y000915D03*
D12*
X007752Y002665D03*
X008007Y002665D03*
X008263Y002665D03*
X007496Y002665D03*
X007240Y002665D03*
X006984Y002665D03*
X006728Y002665D03*
X006472Y002665D03*
X006216Y002665D03*
X005960Y002665D03*
X005704Y002665D03*
X005448Y002665D03*
X005193Y002665D03*
X004937Y002665D03*
X004937Y005544D03*
X005193Y005544D03*
X005448Y005544D03*
X005704Y005544D03*
X005960Y005544D03*
X006216Y005544D03*
X006472Y005544D03*
X006728Y005544D03*
X006984Y005544D03*
X007240Y005544D03*
X007496Y005544D03*
X007752Y005544D03*
X008007Y005544D03*
X008263Y005544D03*
D13*
X009225Y004314D03*
X009225Y003644D03*
X017108Y007847D03*
X017108Y008517D03*
X022317Y005035D03*
X022986Y005035D03*
X022986Y004238D03*
X022317Y004238D03*
X026060Y001706D03*
X026060Y001037D03*
D14*
X014201Y001321D03*
X014005Y001321D03*
X013808Y001321D03*
X013611Y001321D03*
X013414Y001321D03*
X013217Y001321D03*
X013020Y001321D03*
X012823Y001321D03*
X012627Y001321D03*
X012430Y001321D03*
X012233Y001321D03*
X012036Y001321D03*
X011839Y001321D03*
X011642Y001321D03*
X011445Y001321D03*
X011249Y001321D03*
X011249Y005888D03*
X011445Y005888D03*
X011642Y005888D03*
X011839Y005888D03*
X012036Y005888D03*
X012233Y005888D03*
X012430Y005888D03*
X012627Y005888D03*
X012823Y005888D03*
X013020Y005888D03*
X013217Y005888D03*
X013414Y005888D03*
X013611Y005888D03*
X013808Y005888D03*
X014005Y005888D03*
X014201Y005888D03*
D15*
X015008Y005081D03*
X015008Y004884D03*
X015008Y004687D03*
X015008Y004490D03*
X015008Y004293D03*
X015008Y004096D03*
X015008Y003899D03*
X015008Y003703D03*
X015008Y003506D03*
X015008Y003309D03*
X015008Y003112D03*
X015008Y002915D03*
X015008Y002718D03*
X015008Y002521D03*
X015008Y002325D03*
X015008Y002128D03*
X010442Y002128D03*
X010442Y002325D03*
X010442Y002521D03*
X010442Y002718D03*
X010442Y002915D03*
X010442Y003112D03*
X010442Y003309D03*
X010442Y003506D03*
X010442Y003703D03*
X010442Y003899D03*
X010442Y004096D03*
X010442Y004293D03*
X010442Y004490D03*
X010442Y004687D03*
X010442Y004884D03*
X010442Y005081D03*
D16*
X003353Y005836D03*
X001188Y005836D03*
X001188Y002372D03*
X003353Y002372D03*
X024847Y002372D03*
X027012Y002372D03*
X027012Y005836D03*
X024847Y005836D03*
D17*
X024625Y004734D03*
X024625Y004419D03*
X024625Y004104D03*
X024625Y003789D03*
X024625Y003474D03*
X003575Y003474D03*
X003575Y003789D03*
X003575Y004104D03*
X003575Y004419D03*
X003575Y004734D03*
D18*
X017450Y001539D03*
X021250Y001539D03*
D19*
X019450Y004599D03*
X019254Y004599D03*
X019057Y004599D03*
X018860Y004599D03*
X018663Y004599D03*
X018466Y004599D03*
X018269Y004599D03*
X018072Y004599D03*
X018072Y007355D03*
X018269Y007355D03*
X018466Y007355D03*
X018663Y007355D03*
X018860Y007355D03*
X019057Y007355D03*
X019254Y007355D03*
X019450Y007355D03*
D20*
X020139Y006666D03*
X020139Y006469D03*
X020139Y006272D03*
X020139Y006076D03*
X020139Y005879D03*
X020139Y005682D03*
X020139Y005485D03*
X020139Y005288D03*
X017383Y005288D03*
X017383Y005485D03*
X017383Y005682D03*
X017383Y005879D03*
X017383Y006076D03*
X017383Y006272D03*
X017383Y006469D03*
X017383Y006666D03*
M02*
