G75*
G70*
%OFA0B0*%
%FSLAX24Y24*%
%IPPOS*%
%LPD*%
%AMOC8*
5,1,8,0,0,1.08239X$1,22.5*
%
%ADD10C,0.1310*%
%ADD11R,0.1181X0.0354*%
%ADD12C,0.0100*%
%ADD13R,0.0396X0.0396*%
%ADD14C,0.0160*%
%ADD15C,0.0396*%
%ADD16C,0.0240*%
%ADD17C,0.0120*%
D10*
X024037Y001581D03*
X024037Y006751D03*
D11*
X022679Y005347D03*
X022679Y004560D03*
X022679Y003772D03*
X022679Y002985D03*
D12*
X022679Y003772D02*
X023643Y003772D01*
X023643Y003851D01*
X023643Y004560D02*
X022679Y004560D01*
X021360Y004796D02*
X021360Y003772D01*
X020179Y004166D02*
X019785Y003694D01*
X018919Y003694D01*
X020179Y004796D02*
X021360Y004796D01*
X020179Y004796D02*
X020179Y005741D01*
X018919Y005741D01*
X018683Y006292D02*
X020887Y006292D01*
X020887Y005741D01*
X015848Y005741D02*
X015848Y000623D01*
X014850Y001479D02*
X014100Y002229D01*
X011100Y002229D01*
X010725Y002604D01*
X007100Y002604D01*
X006975Y002729D01*
X006975Y003479D01*
X007600Y004104D02*
X005725Y004104D01*
X007600Y004104D02*
X007850Y004354D01*
X009225Y005104D02*
X010100Y005104D01*
X011725Y003479D01*
X017817Y008654D02*
X017817Y008733D01*
X017738Y008733D01*
D13*
X017738Y008733D03*
X015848Y005741D03*
X011475Y004854D03*
X009225Y005104D03*
X007850Y004354D03*
X006725Y004854D03*
X005725Y004104D03*
X005850Y003479D03*
X006975Y003479D03*
X007850Y003604D03*
X004225Y002979D03*
X011100Y002229D03*
X011725Y003479D03*
X014850Y001479D03*
X015848Y000623D03*
X018919Y003694D03*
X020179Y004166D03*
X021360Y003772D03*
X023643Y003851D03*
X023643Y004560D03*
X025769Y004087D03*
X020887Y005741D03*
X004352Y006607D03*
D14*
X000280Y002542D02*
X000280Y000409D01*
X015510Y000409D01*
X015510Y000879D01*
X015592Y000961D01*
X015658Y000961D01*
X015658Y005403D01*
X015592Y005403D01*
X015510Y005485D01*
X015510Y005997D01*
X015592Y006079D01*
X016104Y006079D01*
X016186Y005997D01*
X016186Y005485D01*
X016104Y005403D01*
X016038Y005403D01*
X016038Y000961D01*
X016104Y000961D01*
X016186Y000879D01*
X016186Y000409D01*
X027725Y000409D01*
X027804Y009159D01*
X000339Y009159D01*
X000280Y002542D01*
X000281Y002607D02*
X006829Y002607D01*
X006785Y002650D02*
X006910Y002525D01*
X007021Y002414D01*
X010646Y002414D01*
X010762Y002299D01*
X010762Y001973D01*
X010844Y001891D01*
X011356Y001891D01*
X011438Y001973D01*
X011438Y002039D01*
X014021Y002039D01*
X014512Y001549D01*
X014512Y001223D01*
X014594Y001141D01*
X015106Y001141D01*
X015188Y001223D01*
X015188Y001735D01*
X015106Y001817D01*
X014781Y001817D01*
X014290Y002308D01*
X014179Y002419D01*
X011438Y002419D01*
X011438Y002485D01*
X011356Y002567D01*
X011031Y002567D01*
X010804Y002794D01*
X007179Y002794D01*
X007165Y002808D01*
X007165Y003141D01*
X007231Y003141D01*
X007313Y003223D01*
X007313Y003735D01*
X007231Y003817D01*
X006719Y003817D01*
X006637Y003735D01*
X006637Y003223D01*
X006719Y003141D01*
X006785Y003141D01*
X006785Y002650D01*
X006785Y002765D02*
X000282Y002765D01*
X000283Y002924D02*
X002150Y002924D01*
X002155Y002919D02*
X002294Y002861D01*
X002444Y002861D01*
X002582Y002919D01*
X002688Y003025D01*
X002746Y003163D01*
X002746Y003313D01*
X002688Y003451D01*
X002582Y003557D01*
X002444Y003615D01*
X002294Y003615D01*
X002155Y003557D01*
X002049Y003451D01*
X001992Y003313D01*
X001992Y003163D01*
X002049Y003025D01*
X002155Y002919D01*
X002025Y003082D02*
X000285Y003082D01*
X000286Y003241D02*
X001992Y003241D01*
X002028Y003399D02*
X000288Y003399D01*
X000289Y003558D02*
X002156Y003558D01*
X002582Y003558D02*
X006637Y003558D01*
X006637Y003716D02*
X000290Y003716D01*
X000292Y003875D02*
X005387Y003875D01*
X005387Y003848D02*
X005469Y003766D01*
X005981Y003766D01*
X006063Y003848D01*
X006063Y003914D01*
X007521Y003914D01*
X007679Y003914D01*
X007781Y004016D01*
X008106Y004016D01*
X008188Y004098D01*
X008188Y004610D01*
X008106Y004692D01*
X007594Y004692D01*
X007512Y004610D01*
X007512Y004294D01*
X006063Y004294D01*
X006063Y004360D01*
X005981Y004442D01*
X005469Y004442D01*
X005387Y004360D01*
X005387Y003848D01*
X005387Y004033D02*
X000293Y004033D01*
X000295Y004192D02*
X005387Y004192D01*
X005387Y004350D02*
X000296Y004350D01*
X000298Y004509D02*
X007512Y004509D01*
X007569Y004667D02*
X002599Y004667D01*
X002582Y004651D02*
X002688Y004757D01*
X002746Y004895D01*
X002746Y005045D01*
X002688Y005184D01*
X002582Y005290D01*
X002444Y005347D01*
X002294Y005347D01*
X002155Y005290D01*
X002049Y005184D01*
X001992Y005045D01*
X001992Y004895D01*
X002049Y004757D01*
X002155Y004651D01*
X002294Y004593D01*
X002444Y004593D01*
X002582Y004651D01*
X002717Y004826D02*
X008909Y004826D01*
X008887Y004848D02*
X008969Y004766D01*
X009481Y004766D01*
X009563Y004848D01*
X009563Y004914D01*
X010021Y004914D01*
X011387Y003549D01*
X011387Y003223D01*
X011469Y003141D01*
X011981Y003141D01*
X012063Y003223D01*
X012063Y003735D01*
X011981Y003817D01*
X011656Y003817D01*
X010179Y005294D01*
X009563Y005294D01*
X009563Y005360D01*
X009481Y005442D01*
X008969Y005442D01*
X008887Y005360D01*
X008887Y004848D01*
X008887Y004984D02*
X002746Y004984D01*
X002705Y005143D02*
X008887Y005143D01*
X008887Y005301D02*
X002555Y005301D01*
X002183Y005301D02*
X000305Y005301D01*
X000306Y005460D02*
X015535Y005460D01*
X015658Y005301D02*
X009563Y005301D01*
X010330Y005143D02*
X015658Y005143D01*
X016038Y005143D02*
X019989Y005143D01*
X019989Y005301D02*
X016038Y005301D01*
X016161Y005460D02*
X018722Y005460D01*
X018727Y005454D02*
X018852Y005403D01*
X018986Y005403D01*
X019110Y005454D01*
X019206Y005549D01*
X019206Y005551D01*
X019989Y005551D01*
X019989Y004717D01*
X020100Y004606D01*
X021170Y004606D01*
X021170Y004111D01*
X021104Y004111D01*
X021022Y004029D01*
X021022Y003516D01*
X021104Y003434D01*
X021616Y003434D01*
X021698Y003516D01*
X021698Y004029D01*
X021616Y004111D01*
X021550Y004111D01*
X021550Y004875D01*
X021439Y004986D01*
X020369Y004986D01*
X020369Y005820D01*
X020257Y005931D01*
X019206Y005931D01*
X019206Y005932D01*
X019110Y006028D01*
X018986Y006079D01*
X018948Y006079D01*
X018969Y006101D01*
X018970Y006102D01*
X020697Y006102D01*
X020697Y006079D01*
X020631Y006079D01*
X020549Y005997D01*
X020549Y005485D01*
X020631Y005403D01*
X021144Y005403D01*
X021226Y005485D01*
X021226Y005997D01*
X021144Y006079D01*
X021077Y006079D01*
X021077Y006371D01*
X020966Y006482D01*
X018970Y006482D01*
X018969Y006484D01*
X018874Y006579D01*
X018750Y006630D01*
X018615Y006630D01*
X018491Y006579D01*
X018396Y006484D01*
X018345Y006359D01*
X018345Y006225D01*
X018396Y006101D01*
X018491Y006005D01*
X018615Y005954D01*
X018654Y005954D01*
X018632Y005932D01*
X018581Y005808D01*
X018581Y005674D01*
X018632Y005549D01*
X018727Y005454D01*
X019116Y005460D02*
X019989Y005460D01*
X020369Y005460D02*
X020574Y005460D01*
X020369Y005301D02*
X021948Y005301D01*
X021948Y005460D02*
X021200Y005460D01*
X021226Y005618D02*
X021984Y005618D01*
X021948Y005582D02*
X022030Y005664D01*
X022419Y005664D01*
X022419Y006440D01*
X021252Y007607D01*
X005720Y007607D01*
X004690Y006578D01*
X004690Y006351D01*
X004608Y006269D01*
X004096Y006269D01*
X004014Y006351D01*
X004014Y006863D01*
X004096Y006945D01*
X004322Y006945D01*
X005465Y008087D01*
X005560Y008127D01*
X021412Y008127D01*
X021507Y008087D01*
X021580Y008014D01*
X021580Y008014D01*
X022899Y006695D01*
X022939Y006600D01*
X022939Y005664D01*
X023327Y005664D01*
X023409Y005582D01*
X023409Y005112D01*
X023327Y005030D01*
X022030Y005030D01*
X021948Y005112D01*
X021948Y005582D01*
X022419Y005777D02*
X021226Y005777D01*
X021226Y005935D02*
X022419Y005935D01*
X022419Y006094D02*
X021077Y006094D01*
X020697Y006094D02*
X018962Y006094D01*
X019203Y005935D02*
X020549Y005935D01*
X020549Y005777D02*
X020369Y005777D01*
X020369Y005618D02*
X020549Y005618D01*
X020369Y005143D02*
X021948Y005143D01*
X021440Y004984D02*
X025454Y004984D01*
X025454Y005045D02*
X025454Y004895D01*
X025512Y004757D01*
X025618Y004651D01*
X025756Y004593D01*
X025906Y004593D01*
X026045Y004651D01*
X026151Y004757D01*
X026208Y004895D01*
X026208Y005045D01*
X026151Y005184D01*
X026045Y005290D01*
X025906Y005347D01*
X025756Y005347D01*
X025618Y005290D01*
X025512Y005184D01*
X025454Y005045D01*
X025495Y005143D02*
X023409Y005143D01*
X023409Y005301D02*
X025645Y005301D01*
X026017Y005301D02*
X027769Y005301D01*
X027771Y005460D02*
X023409Y005460D01*
X023374Y005618D02*
X027772Y005618D01*
X027773Y005777D02*
X022939Y005777D01*
X022939Y005935D02*
X027775Y005935D01*
X027776Y006094D02*
X024504Y006094D01*
X024487Y006077D02*
X024711Y006301D01*
X024832Y006593D01*
X024832Y006909D01*
X024711Y007201D01*
X024487Y007425D01*
X024195Y007546D01*
X023879Y007546D01*
X023587Y007425D01*
X023363Y007201D01*
X023242Y006909D01*
X023242Y006593D01*
X023363Y006301D01*
X023587Y006077D01*
X023879Y005956D01*
X024195Y005956D01*
X024487Y006077D01*
X024662Y006252D02*
X027778Y006252D01*
X027779Y006411D02*
X024756Y006411D01*
X024822Y006569D02*
X027781Y006569D01*
X027782Y006728D02*
X024832Y006728D01*
X024832Y006886D02*
X027783Y006886D01*
X027785Y007045D02*
X024776Y007045D01*
X024709Y007203D02*
X027786Y007203D01*
X027788Y007362D02*
X024551Y007362D01*
X024258Y007520D02*
X027789Y007520D01*
X027791Y007679D02*
X021916Y007679D01*
X021757Y007837D02*
X027792Y007837D01*
X027793Y007996D02*
X021599Y007996D01*
X021339Y007520D02*
X005633Y007520D01*
X005474Y007362D02*
X021497Y007362D01*
X021656Y007203D02*
X005316Y007203D01*
X005157Y007045D02*
X021814Y007045D01*
X021973Y006886D02*
X004999Y006886D01*
X004840Y006728D02*
X022131Y006728D01*
X022290Y006569D02*
X018884Y006569D01*
X018482Y006569D02*
X004690Y006569D01*
X004690Y006411D02*
X018366Y006411D01*
X018345Y006252D02*
X000313Y006252D01*
X000315Y006411D02*
X004014Y006411D01*
X004014Y006569D02*
X000316Y006569D01*
X000317Y006728D02*
X004014Y006728D01*
X004037Y006886D02*
X000319Y006886D01*
X000320Y007045D02*
X004422Y007045D01*
X004580Y007203D02*
X000322Y007203D01*
X000323Y007362D02*
X004739Y007362D01*
X004897Y007520D02*
X000325Y007520D01*
X000326Y007679D02*
X005056Y007679D01*
X005214Y007837D02*
X000327Y007837D01*
X000329Y007996D02*
X005373Y007996D01*
X000330Y008154D02*
X027795Y008154D01*
X027796Y008313D02*
X000332Y008313D01*
X000333Y008471D02*
X027798Y008471D01*
X027799Y008630D02*
X000334Y008630D01*
X000336Y008788D02*
X027800Y008788D01*
X027802Y008947D02*
X000337Y008947D01*
X000339Y009105D02*
X027803Y009105D01*
X023816Y007520D02*
X022074Y007520D01*
X022233Y007362D02*
X023523Y007362D01*
X023365Y007203D02*
X022391Y007203D01*
X022550Y007045D02*
X023298Y007045D01*
X023242Y006886D02*
X022708Y006886D01*
X022867Y006728D02*
X023242Y006728D01*
X023252Y006569D02*
X022939Y006569D01*
X022939Y006411D02*
X023318Y006411D01*
X023412Y006252D02*
X022939Y006252D01*
X022939Y006094D02*
X023570Y006094D01*
X022419Y006252D02*
X021077Y006252D01*
X021038Y006411D02*
X022419Y006411D01*
X018635Y005935D02*
X016186Y005935D01*
X016186Y005777D02*
X018581Y005777D01*
X018604Y005618D02*
X016186Y005618D01*
X015510Y005618D02*
X000308Y005618D01*
X000309Y005777D02*
X015510Y005777D01*
X015510Y005935D02*
X000310Y005935D01*
X000312Y006094D02*
X018403Y006094D01*
X019989Y004984D02*
X016038Y004984D01*
X016038Y004826D02*
X019989Y004826D01*
X020039Y004667D02*
X016038Y004667D01*
X015658Y004667D02*
X010806Y004667D01*
X010964Y004509D02*
X015658Y004509D01*
X016038Y004509D02*
X021170Y004509D01*
X021550Y004509D02*
X021948Y004509D01*
X021948Y004667D02*
X021550Y004667D01*
X021948Y004795D02*
X022030Y004877D01*
X023327Y004877D01*
X023347Y004858D01*
X023387Y004898D01*
X023899Y004898D01*
X023981Y004816D01*
X023981Y004304D01*
X023899Y004222D01*
X023387Y004222D01*
X023347Y004262D01*
X023327Y004243D01*
X022030Y004243D01*
X021948Y004325D01*
X021948Y004795D01*
X021979Y004826D02*
X021550Y004826D01*
X020517Y004422D02*
X020435Y004504D01*
X019923Y004504D01*
X019841Y004422D01*
X019841Y004057D01*
X019696Y003884D01*
X019257Y003884D01*
X019257Y003950D01*
X019175Y004032D01*
X018663Y004032D01*
X018581Y003950D01*
X018581Y003438D01*
X018663Y003356D01*
X019175Y003356D01*
X019257Y003438D01*
X019257Y003504D01*
X019716Y003504D01*
X019724Y003497D01*
X019794Y003504D01*
X019864Y003504D01*
X019871Y003511D01*
X019881Y003512D01*
X019925Y003565D01*
X019975Y003615D01*
X019975Y003625D01*
X020144Y003828D01*
X020435Y003828D01*
X020517Y003910D01*
X020517Y004422D01*
X020517Y004350D02*
X021170Y004350D01*
X021550Y004350D02*
X021948Y004350D01*
X021550Y004192D02*
X025431Y004192D01*
X025431Y004084D02*
X025388Y004051D01*
X023981Y004051D01*
X023981Y004107D01*
X023899Y004189D01*
X023387Y004189D01*
X023305Y004107D01*
X023305Y004090D01*
X022030Y004090D01*
X021948Y004008D01*
X021948Y003537D01*
X022030Y003455D01*
X023327Y003455D01*
X023386Y003514D01*
X023387Y003513D01*
X023899Y003513D01*
X023981Y003595D01*
X023981Y003651D01*
X025440Y003651D01*
X025508Y003641D01*
X025521Y003651D01*
X025537Y003651D01*
X025586Y003700D01*
X025652Y003749D01*
X026025Y003749D01*
X026107Y003831D01*
X026107Y004344D01*
X026025Y004426D01*
X025513Y004426D01*
X025431Y004344D01*
X025431Y004084D01*
X026107Y004033D02*
X027758Y004033D01*
X027759Y004192D02*
X026107Y004192D01*
X026101Y004350D02*
X027761Y004350D01*
X027762Y004509D02*
X023981Y004509D01*
X023981Y004667D02*
X025601Y004667D01*
X025483Y004826D02*
X023972Y004826D01*
X023981Y004350D02*
X025438Y004350D01*
X026061Y004667D02*
X027764Y004667D01*
X027765Y004826D02*
X026179Y004826D01*
X026208Y004984D02*
X027766Y004984D01*
X027768Y005143D02*
X026168Y005143D01*
X026107Y003875D02*
X027756Y003875D01*
X027755Y003716D02*
X025608Y003716D01*
X025618Y003558D02*
X023944Y003558D01*
X023413Y003273D02*
X023380Y003306D01*
X023339Y003330D01*
X023293Y003342D01*
X022687Y003342D01*
X022687Y002994D01*
X022670Y002994D01*
X022670Y003342D01*
X022064Y003342D01*
X022019Y003330D01*
X021978Y003306D01*
X021944Y003273D01*
X021920Y003232D01*
X021908Y003186D01*
X021908Y002994D01*
X022670Y002994D01*
X022670Y002976D01*
X022687Y002976D01*
X022687Y002628D01*
X023293Y002628D01*
X023339Y002640D01*
X023380Y002664D01*
X023413Y002697D01*
X023437Y002738D01*
X023449Y002784D01*
X023449Y002976D01*
X022687Y002976D01*
X022687Y002994D01*
X023449Y002994D01*
X023449Y003186D01*
X023437Y003232D01*
X023413Y003273D01*
X023432Y003241D02*
X025454Y003241D01*
X025454Y003313D02*
X025454Y003163D01*
X025512Y003025D01*
X025618Y002919D01*
X025756Y002861D01*
X025906Y002861D01*
X026045Y002919D01*
X026151Y003025D01*
X026208Y003163D01*
X026208Y003313D01*
X026151Y003451D01*
X026045Y003557D01*
X025906Y003615D01*
X025756Y003615D01*
X025618Y003557D01*
X025512Y003451D01*
X025454Y003313D01*
X025490Y003399D02*
X019219Y003399D01*
X019919Y003558D02*
X021022Y003558D01*
X021022Y003716D02*
X020051Y003716D01*
X020481Y003875D02*
X021022Y003875D01*
X021026Y004033D02*
X020517Y004033D01*
X020517Y004192D02*
X021170Y004192D01*
X021693Y004033D02*
X021974Y004033D01*
X021948Y003875D02*
X021698Y003875D01*
X021698Y003716D02*
X021948Y003716D01*
X021948Y003558D02*
X021698Y003558D01*
X021926Y003241D02*
X016038Y003241D01*
X016038Y003082D02*
X021908Y003082D01*
X021908Y002976D02*
X021908Y002784D01*
X021920Y002738D01*
X021944Y002697D01*
X021978Y002664D01*
X022019Y002640D01*
X022064Y002628D01*
X022670Y002628D01*
X022670Y002976D01*
X021908Y002976D01*
X021908Y002924D02*
X016038Y002924D01*
X015658Y002924D02*
X007165Y002924D01*
X006785Y002924D02*
X002587Y002924D01*
X002712Y003082D02*
X006785Y003082D01*
X006637Y003241D02*
X002746Y003241D01*
X002710Y003399D02*
X006637Y003399D01*
X007313Y003399D02*
X011387Y003399D01*
X011387Y003241D02*
X007313Y003241D01*
X007165Y003082D02*
X015658Y003082D01*
X015658Y003241D02*
X012063Y003241D01*
X012063Y003399D02*
X015658Y003399D01*
X016038Y003399D02*
X018619Y003399D01*
X018581Y003558D02*
X016038Y003558D01*
X016038Y003716D02*
X018581Y003716D01*
X018581Y003875D02*
X016038Y003875D01*
X015658Y003875D02*
X011598Y003875D01*
X011440Y004033D02*
X015658Y004033D01*
X015658Y004192D02*
X011281Y004192D01*
X010902Y004033D02*
X008123Y004033D01*
X008188Y004192D02*
X010744Y004192D01*
X010585Y004350D02*
X008188Y004350D01*
X008188Y004509D02*
X010427Y004509D01*
X010268Y004667D02*
X008131Y004667D01*
X007512Y004350D02*
X006063Y004350D01*
X006063Y003875D02*
X011061Y003875D01*
X011219Y003716D02*
X007313Y003716D01*
X007313Y003558D02*
X011378Y003558D01*
X012063Y003558D02*
X015658Y003558D01*
X015658Y003716D02*
X012063Y003716D01*
X011123Y004350D02*
X015658Y004350D01*
X016038Y004350D02*
X019841Y004350D01*
X019841Y004192D02*
X016038Y004192D01*
X016038Y004033D02*
X019821Y004033D01*
X022670Y003241D02*
X022687Y003241D01*
X022670Y003082D02*
X022687Y003082D01*
X022670Y002924D02*
X022687Y002924D01*
X022670Y002765D02*
X022687Y002765D01*
X023444Y002765D02*
X027747Y002765D01*
X027745Y002607D02*
X016038Y002607D01*
X016038Y002765D02*
X021913Y002765D01*
X023449Y002924D02*
X025613Y002924D01*
X025488Y003082D02*
X023449Y003082D01*
X023879Y002376D02*
X023587Y002255D01*
X023363Y002031D01*
X023242Y001739D01*
X023242Y001423D01*
X023363Y001131D01*
X023587Y000907D01*
X023879Y000786D01*
X024195Y000786D01*
X024487Y000907D01*
X024711Y001131D01*
X024832Y001423D01*
X024832Y001739D01*
X024711Y002031D01*
X024487Y002255D01*
X024195Y002376D01*
X023879Y002376D01*
X023670Y002290D02*
X016038Y002290D01*
X016038Y002131D02*
X023463Y002131D01*
X023339Y001973D02*
X016038Y001973D01*
X015658Y001973D02*
X014625Y001973D01*
X014467Y002131D02*
X015658Y002131D01*
X015658Y002290D02*
X014308Y002290D01*
X014088Y001973D02*
X011438Y001973D01*
X010762Y001973D02*
X000280Y001973D01*
X000280Y002131D02*
X010762Y002131D01*
X010762Y002290D02*
X000280Y002290D01*
X000280Y002448D02*
X006987Y002448D01*
X010833Y002765D02*
X015658Y002765D01*
X015658Y002607D02*
X010991Y002607D01*
X011438Y002448D02*
X015658Y002448D01*
X016038Y002448D02*
X027744Y002448D01*
X027742Y002290D02*
X024404Y002290D01*
X024611Y002131D02*
X027741Y002131D01*
X027739Y001973D02*
X024735Y001973D01*
X024801Y001814D02*
X027738Y001814D01*
X027737Y001656D02*
X024832Y001656D01*
X024832Y001497D02*
X027735Y001497D01*
X027734Y001339D02*
X024797Y001339D01*
X024731Y001180D02*
X027732Y001180D01*
X027731Y001022D02*
X024602Y001022D01*
X024381Y000863D02*
X027730Y000863D01*
X027728Y000705D02*
X016186Y000705D01*
X016186Y000863D02*
X023693Y000863D01*
X023472Y001022D02*
X016038Y001022D01*
X015658Y001022D02*
X000280Y001022D01*
X000280Y001180D02*
X014555Y001180D01*
X014512Y001339D02*
X000280Y001339D01*
X000280Y001497D02*
X014512Y001497D01*
X014405Y001656D02*
X000280Y001656D01*
X000280Y001814D02*
X014246Y001814D01*
X015109Y001814D02*
X015658Y001814D01*
X015658Y001656D02*
X015188Y001656D01*
X015188Y001497D02*
X015658Y001497D01*
X016038Y001497D02*
X023242Y001497D01*
X023242Y001656D02*
X016038Y001656D01*
X016038Y001814D02*
X023273Y001814D01*
X023277Y001339D02*
X016038Y001339D01*
X016038Y001180D02*
X023343Y001180D01*
X027727Y000546D02*
X016186Y000546D01*
X015510Y000546D02*
X000280Y000546D01*
X000280Y000705D02*
X015510Y000705D01*
X015510Y000863D02*
X000280Y000863D01*
X000299Y004667D02*
X002139Y004667D01*
X002021Y004826D02*
X000300Y004826D01*
X000302Y004984D02*
X001992Y004984D01*
X002032Y005143D02*
X000303Y005143D01*
X009541Y004826D02*
X010110Y004826D01*
X010489Y004984D02*
X015658Y004984D01*
X015658Y004826D02*
X010647Y004826D01*
X015188Y001339D02*
X015658Y001339D01*
X015658Y001180D02*
X015145Y001180D01*
X026050Y002924D02*
X027748Y002924D01*
X027749Y003082D02*
X026175Y003082D01*
X026208Y003241D02*
X027751Y003241D01*
X027752Y003399D02*
X026172Y003399D01*
X026044Y003558D02*
X027754Y003558D01*
D15*
X021281Y003221D03*
X016478Y003143D03*
X018919Y005741D03*
X018683Y006292D03*
X018210Y006686D03*
X025927Y006056D03*
X025139Y000623D03*
D16*
X022679Y005347D02*
X022679Y006548D01*
X021360Y007867D01*
X005612Y007867D01*
X004352Y006607D01*
D17*
X023643Y003851D02*
X025454Y003851D01*
X025769Y004087D01*
M02*
